<?xml version="1.0" encoding="UTF-8" standalone="no"?>
<svg
   xmlns:dc="http://purl.org/dc/elements/1.1/"
   xmlns:cc="http://creativecommons.org/ns#"
   xmlns:rdf="http://www.w3.org/1999/02/22-rdf-syntax-ns#"
   xmlns:svg="http://www.w3.org/2000/svg"
   xmlns="http://www.w3.org/2000/svg"
   xmlns:sodipodi="http://sodipodi.sourceforge.net/DTD/sodipodi-0.dtd"
   xmlns:inkscape="http://www.inkscape.org/namespaces/inkscape"
   fill="#000000"
   height="24"
   viewBox="0 0 24 24"
   width="24"
   id="svg4873"
   version="1.1"
   inkscape:version="0.91 r13725"
   sodipodi:docname="fingerprint_torrent.svg">
  <metadata
     id="metadata4883">
    <rdf:RDF>
      <cc:Work
         rdf:about="">
        <dc:format>image/svg+xml</dc:format>
        <dc:type
           rdf:resource="http://purl.org/dc/dcmitype/StillImage" />
        <dc:title></dc:title>
      </cc:Work>
    </rdf:RDF>
  </metadata>
  <defs
     id="defs4881" />
  <sodipodi:namedview
     pagecolor="#ffffff"
     bordercolor="#666666"
     borderopacity="1"
     objecttolerance="10"
     gridtolerance="10"
     guidetolerance="10"
     inkscape:pageopacity="0"
     inkscape:pageshadow="2"
     inkscape:window-width="1366"
     inkscape:window-height="754"
     id="namedview4879"
     showgrid="false"
     inkscape:zoom="13.906433"
     inkscape:cx="0.50475459"
     inkscape:cy="11.434071"
     inkscape:window-x="0"
     inkscape:window-y="14"
     inkscape:window-maximized="0"
     inkscape:current-layer="svg4873" />
  <path
     d="M0 0h24v24H0z"
     fill="none"
     id="path4875" />
  <path
     style="fill:#ffffff"
     d="M 12 4 C 9.11 4 6.5996094 5.6390625 5.3496094 8.0390625 C 2.3396094 8.3590625 0 10.91 0 14 C 0 17.31 2.69 20 6 20 L 19 20 C 21.76 20 24 17.76 24 15 C 24 12.36 21.949609 10.219063 19.349609 10.039062 C 18.669609 6.589063 15.64 4 12 4 z M 12.009766 6.3574219 C 13.303732 6.3574219 14.432584 6.6414257 15.671875 7.2792969 C 15.823749 7.3582713 15.879756 7.541701 15.800781 7.6875 C 15.746107 7.7968492 15.642552 7.8574219 15.533203 7.8574219 C 15.484603 7.8574219 15.435103 7.8446123 15.392578 7.8203125 C 14.226186 7.2188916 13.218682 6.9648437 12.009766 6.9648438 C 10.806924 6.9648438 9.6638178 7.2492664 8.625 7.8203125 C 8.479201 7.899287 8.29794 7.8450177 8.2128906 7.6992188 C 8.1339162 7.5534198 8.1881854 7.3641307 8.3339844 7.2851562 C 9.4639266 6.6715849 10.70365 6.3574219 12.009766 6.3574219 z M 11.998047 7.8378906 C 13.086224 7.8363719 14.174053 8.0821471 15.130859 8.5742188 C 16.042103 9.0419905 16.808735 9.7044089 17.410156 10.548828 C 17.507356 10.682477 17.475662 10.875457 17.335938 10.972656 C 17.196213 11.069856 17.009309 11.040115 16.912109 10.900391 C 16.365363 10.134946 15.671682 9.5344065 14.851562 9.1152344 C 13.10805 8.2222155 10.880016 8.222 9.1425781 9.1210938 C 8.3163838 9.5463408 7.6229181 10.152524 7.0761719 10.917969 C 7.0275722 11.003018 6.9370431 11.046875 6.8398438 11.046875 C 6.7790942 11.046875 6.7187371 11.028637 6.6640625 10.992188 C 6.5243385 10.894988 6.4926444 10.70613 6.5898438 10.566406 C 7.1912646 9.7159121 7.9578969 9.0478499 8.8691406 8.5800781 C 9.822909 8.0880065 10.90987 7.8394094 11.998047 7.8378906 z M 11.978516 9.2851562 C 14.742622 9.2851562 16.990234 11.416634 16.990234 14.041016 C 16.990234 15.025159 16.151884 15.828125 15.119141 15.828125 C 14.086398 15.828125 13.248047 15.025159 13.248047 14.041016 C 13.248047 13.390995 12.682995 12.863281 11.984375 12.863281 C 11.285755 12.863281 10.720703 13.390995 10.720703 14.041016 C 10.720703 15.079833 11.122352 16.052255 11.857422 16.78125 C 12.434543 17.352296 12.987181 17.667374 13.84375 17.904297 C 14.007774 17.946822 14.099165 18.117442 14.056641 18.275391 C 14.026266 18.415115 13.899058 18.505859 13.771484 18.505859 C 13.747185 18.505859 13.715706 18.500216 13.691406 18.494141 C 12.725488 18.226842 12.093811 17.868771 11.431641 17.21875 C 10.581146 16.374331 10.113281 15.249717 10.113281 14.046875 C 10.113281 13.062732 10.951632 12.261719 11.984375 12.261719 C 13.017118 12.261719 13.855469 13.062732 13.855469 14.046875 C 13.855469 14.696896 14.42052 15.226562 15.119141 15.226562 C 15.817761 15.226562 16.382813 14.696896 16.382812 14.046875 C 16.382812 11.756616 14.408499 9.8984375 11.978516 9.8984375 C 10.253228 9.8984375 8.6736607 10.857338 7.9628906 12.345703 C 7.7259673 12.837775 7.6054688 13.415079 7.6054688 14.046875 C 7.6054688 14.520722 7.6472213 15.268241 8.0117188 16.240234 C 8.0724683 16.398183 7.9938864 16.574232 7.8359375 16.628906 C 7.6779886 16.689656 7.5019402 16.604999 7.4472656 16.453125 C 7.1495927 15.657305 7.0039062 14.866994 7.0039062 14.046875 C 7.0039062 13.31788 7.1426425 12.657199 7.4160156 12.080078 C 8.2239851 10.385165 10.016304 9.2851562 11.978516 9.2851562 z M 12.003906 10.773438 C 13.899293 10.773438 15.441406 12.242612 15.441406 14.046875 C 15.441406 14.216974 15.308771 14.351563 15.138672 14.351562 C 14.968573 14.351562 14.833984 14.216974 14.833984 14.046875 C 14.833984 12.576735 13.56517 11.380859 12.003906 11.380859 C 10.442642 11.380859 9.171875 12.576735 9.171875 14.046875 C 9.171875 14.921669 9.3657557 15.730623 9.7363281 16.386719 C 10.125125 17.085339 10.393556 17.381622 10.861328 17.855469 C 10.976752 17.976968 10.976752 18.16561 10.861328 18.287109 C 10.794504 18.347859 10.715693 18.378906 10.636719 18.378906 C 10.557744 18.378906 10.478503 18.347859 10.423828 18.287109 C 9.8953068 17.758588 9.6101472 17.418664 9.203125 16.683594 C 8.7839529 15.936374 8.5644531 15.024943 8.5644531 14.046875 C 8.5644531 12.242612 10.108519 10.773438 12.003906 10.773438 z M 11.966797 13.744141 C 12.136896 13.744141 12.269531 13.876776 12.269531 14.046875 C 12.269531 14.903444 12.708074 15.712791 13.449219 16.210938 C 13.880541 16.502535 14.384692 16.640625 14.992188 16.640625 C 15.137986 16.640625 15.380049 16.622603 15.623047 16.580078 C 15.787071 16.549703 15.946188 16.659979 15.976562 16.830078 C 16.006937 16.994102 15.896661 17.151266 15.726562 17.181641 C 15.38029 17.248465 15.077237 17.255859 14.992188 17.255859 C 14.269267 17.255859 13.631821 17.073266 13.109375 16.714844 C 12.204206 16.101273 11.662109 15.103918 11.662109 14.046875 C 11.662109 13.876776 11.796698 13.744141 11.966797 13.744141 z "
     id="path4877" />
</svg>
